<svg xmlns="http://www.w3.org/2000/svg" viewBox="0 0 100 100">
	<path
		fill="currentColor"
		d="M19.647842,83.405742 17.12912,74.376763 A 59.915284,59.915284 111.54946 0 1 44.240174,5.7251991 L 75.468532,18.867133 A 60.386505,60.386505 111.11049 0 0 48.971728,87.497785 l 2.034591,8.269181 z"
	/>
	<path
		fill="currentColor"
		d="M 55.072512,91.798362 54.544897,85.324719 C 53.694865,74.895151 58.0742,59.624658 64.887713,51.683707 c 4.017964,-4.682809 10.680248,-7.18546 13.990839,-7.389636 l -19.219377,-8.186282 -2.747207,3.929736 a 49.625159,49.625159 102.44905 0 0 -8.190353,37.100386 l 2.354013,13.270894 z"
		transform="translate(0.3680297)"
	/>
	<path
		fill="currentColor"
		d="m 60.114589,66.945795 23.681507,9.563685 0.139558,-0.915404 A 72.656565,72.656565 89.437067 0 0 83.706626,52.28424 l -0.08143,-0.47171 A 6.8911511,6.8911511 19.183097 0 0 72.237752,47.850769 47.237471,47.237471 122.89221 0 0 60.47418,66.039903 z"
	/>
</svg>
