<svg xmlns="http://www.w3.org/2000/svg" viewBox="0 0 100 100">
	<path
		fill="currentColor"
		d="m 2.9249314,78.6965 19.0096116,2.096489 a 9.5836714,9.5836714 165.41404 0 0 6.611126,-1.720339 10.495337,10.495337 176.508 0 1 9.251253,-0.564534 l 0.960623,0.2926 a 37.398702,37.398702 3.992193 0 0 16.719233,1.166833 l 14.64982,-2.308783 a 7.9513851,7.9513851 38.283424 0 1 9.164967,7.233751 l 0.938917,11.99131 1.278149,0.376424 a 23.099912,23.099912 173.63632 0 0 17.773461,-1.982205 l 0.02843,-0.01585 -1.15514,-16.787234 A 20.841075,20.841075 51.653295 0 0 83.54127,60.001265 L 68.817419,55.431375 A 5.8337525,5.8337525 52.823892 0 1 64.715192,50.022208 L 64.515708,42.85892 a 3.3667732,3.3667732 112.62429 0 1 1.062628,-2.549752 l 0.808928,-0.758473 A 1.9407677,1.9407677 114.62655 0 0 66.99885,38.21651 l 0.08632,-2.051581 a 0.55247117,0.55247117 136.25907 0 1 0.553032,-0.529245 l 0.541849,0.001 a 0.96576066,0.96576066 134.63993 0 0 0.967493,-0.97973 l -0.04871,-3.366841 a 1.0872176,1.0872176 44.377732 0 0 -1.094991,-1.07146 l -2.062221,0.01496 a 7.2051818,7.2051818 19.358924 0 1 -4.599666,-1.616092 l -2.11075,-1.717409 a 5.630161,5.630161 64.566732 0 1 -2.076803,-4.36719 l -1e-6,-2.293747 a 5.082877,5.082877 126.39522 0 1 3.57902,-4.855313 l 0.193636,-0.05997 a 15.012664,15.012664 176.8037 0 1 7.259213,-0.405383 l 7.744056,1.479633 a 3.6433349,3.6433349 165.60129 0 0 3.006805,-0.771944 l 0.256792,-0.212545 A 6.1957624,6.1957624 94.524381 0 0 79.895421,6.5485418 6.5770737,6.5770737 12.774878 0 0 72.856265,4.9525302 L 67.000902,6.843094 A 8.7476383,8.7476383 9.9043485 0 1 58.963362,5.4396901 L 55.396909,2.6829449 A 5.0273,5.0273 1.5807105 0 0 49.471901,2.5194407 L 44.175759,6.165011 A 4.762533,4.762533 168.89168 0 1 40.458825,6.8948048 L 30.310112,4.6774388 a 6.2941033,6.2941033 163.96838 0 0 -5.746298,1.651157 l -0.323842,0.3169969 a 5.406473,5.406473 102.67933 0 0 -1.290297,5.7351423 l 0.635115,1.721242 a 4.173668,4.173668 29.747764 0 0 4.658371,2.662237 l 9.188404,-1.661717 a 10.7262,10.7262 10.78609 0 1 7.564799,1.44116 4.8554895,4.8554895 66.76881 0 1 1.966931,4.582303 L 46.759033,24.3563 A 2.1432634,2.1432634 120.48794 0 1 45.7761,26.025791 l -3.809492,2.440234 a 6.7504395,6.7504395 163.43372 0 1 -3.58337,1.065952 l -1.876142,0.01605 a 1.556823,1.556823 134.5592 0 0 -1.543465,1.567399 l 0.0099,1.446444 a 1.3004363,1.3004363 49.745371 0 0 1.077225,1.27226 1.9010333,1.9010333 53.161199 0 1 1.491144,1.990442 l -0.02045,0.73725 a 2.5108794,2.5108794 69.410205 0 0 0.666679,1.77463 4.0955218,4.0955218 70.294175 0 1 1.007071,2.811739 l -1e-6,4.133108 a 10.039651,10.039651 117.10552 0 1 -4.168447,8.143926 l -0.750183,0.540829 a 5.240243,5.240243 179.36985 0 1 -6.034769,0.06637 l -1.2696,-0.873507 A 4.1062743,4.1062743 15.167796 0 0 24.34442,52.446566 L 2.6554892,54.036668 A 1.8238983,1.8238983 132.92263 0 0 0.96495069,55.854464 L 0.95114283,76.49158 A 2.2167967,2.2167967 48.165905 0 0 2.9249314,78.6965 Z"
		transform="translate(0.16030833,-0.57488003)"
	/>
</svg>
